<svg
    xmlns="http://www.w3.org/2000/svg"
    version="1.0"
    width="100px"
    height="100px"
    viewBox="0 0 1024.000000 768.000000"
    preserveAspectRatio="xMidYMid meet"
>
    <g
        transform="translate(0.000000,768.000000) scale(0.100000,-0.100000)"
        fill="white"
        stroke="none"
    >
        <path d="M3375 6894 c-375 -41 -629 -214 -792 -539 -48 -95 -94 -221 -119 -329 l-18 -78 29 -24 c17 -13 32 -24 35 -24 3 0 23 26 45 57 105 149 247 267 366 304 105 33 209 23 496 -46 269 -65 362 -78 518 -72 211 9 375 52 585 155 63 32 119 59 124 61 4 2 -20 -30 -54 -70 -325 -385 -518 -748 -602 -1129 -22 -100 -23 -123 -21 -473 l1 -369 -21 6 c-83 24 -134 28 -276 23 -242 -7 -353 -48 -477 -171 -58 -59 -134 -166 -134 -189 0 -4 91 -5 203 -4 231 2 274 -6 416 -74 68 -32 100 -55 165 -122 92 -93 134 -164 167 -282 21 -78 32 -245 17 -260 -4 -4 -47 0 -95 9 -264 48 -411 26 -580 -87 l-76 -50 119 -24 c342 -69 554 -245 619 -513 8 -36 18 -117 21 -180 5 -98 3 -127 -15 -198 -87 -336 -341 -688 -751 -1041 -74 -64 -150 -128 -169 -143 l-34 -26 27 -46 c15 -25 28 -46 30 -46 2 0 46 20 97 43 460 214 978 372 1419 434 178 25 626 25 795 0 471 -71 865 -234 1247 -519 59 -44 112 -78 117 -76 8 3 795 751 926 880 l60 59 -69 64 -69 63 -71 -60 c-89 -74 -175 -128 -220 -135 -45 -7 -111 24 -246 114 -394 263 -684 356 -1110 356 -326 0 -633 -51 -1118 -189 -106 -30 -198 -52 -203 -49 -21 14 -3 34 99 110 157 118 282 224 421 360 399 388 605 736 726 1228 36 145 70 348 80 482 4 44 9 91 12 105 3 14 7 230 9 480 3 449 -2 565 -35 801 -5 41 -16 154 -23 252 -20 289 5 458 96 643 112 227 345 384 659 445 57 11 67 16 67 33 0 47 -9 49 -156 43 -496 -23 -837 -140 -1059 -363 -199 -198 -316 -483 -355 -865 -11 -99 -1 -662 15 -924 44 -704 51 -908 36 -1115 -28 -378 -108 -692 -252 -983 -123 -247 -340 -519 -627 -783 -156 -144 -346 -304 -360 -304 -28 0 -18 29 39 118 198 304 433 737 514 942 71 183 135 454 167 715 9 77 13 227 12 500 -2 429 -14 716 -43 990 -49 456 -49 658 0 900 75 371 288 736 599 1027 87 82 97 94 88 113 -6 11 -12 21 -13 23 -2 2 -45 -14 -96 -36 -258 -107 -348 -133 -524 -147 -143 -11 -332 23 -644 116 -253 76 -379 99 -561 103 -85 2 -173 2 -195 0z" />
    </g>
</svg>